<?xml version="1.0" encoding="utf-8"?>
<!-- Generator: Adobe Illustrator 26.3.1, SVG Export Plug-In . SVG Version: 6.00 Build 0)  -->
<svg version="1.1" id="Layer_1" xmlns="http://www.w3.org/2000/svg" xmlns:xlink="http://www.w3.org/1999/xlink" x="0px" y="0px"
	 viewBox="0 0 79.5 81.3" style="enable-background:new 0 0 79.5 81.3;" xml:space="preserve">
<style type="text/css">
	.st0{fill:#D0D5F2;}
</style>
<g>
	<path class="st0" d="M42.6,36.9v-0.1C42.6,36.9,42.5,36.9,42.6,36.9L42.6,36.9z"/>
	<path class="st0" d="M71.7,2.9H7.8c-3.1,0-5.5,2.4-5.5,5.4V73c0,3,2.5,5.4,5.5,5.4h63.9c3.1,0,5.5-2.4,5.5-5.4V8.3
		C77.3,5.3,74.8,2.9,71.7,2.9z M25,66.1H13.7V32H25V66.1z M19.3,27.3L19.3,27.3c-3.9,0-6.3-2.6-6.3-5.9c0-3.3,2.5-5.9,6.4-5.9
		c3.9,0,6.3,2.5,6.3,5.9C25.7,24.7,23.3,27.3,19.3,27.3z M65.8,66.1H54.5V47.8c0-4.6-1.6-7.7-5.7-7.7c-3.1,0-5,2.1-5.8,4.1
		C42.7,45,42.6,46,42.6,47v19H31.3c0,0,0.1-30.9,0-34.1h11.3v4.8c1.5-2.3,4.2-5.6,10.2-5.6c7.5,0,13,4.9,13,15.3L65.8,66.1
		L65.8,66.1z"/>
</g>
</svg>
